<?xml version="1.0" encoding="UTF-8"?>
<!DOCTYPE svg PUBLIC "-//W3C//DTD SVG 1.1//EN" "http://www.w3.org/Graphics/SVG/1.1/DTD/svg11.dtd">
<svg xmlns="http://www.w3.org/2000/svg" version="1.1" width="245px" height="245px" style="shape-rendering:geometricPrecision; text-rendering:geometricPrecision; image-rendering:optimizeQuality; fill-rule:evenodd; clip-rule:evenodd" xmlns:xlink="http://www.w3.org/1999/xlink">
<g><path style="opacity:0.972" fill="#e2b5c7" d="M 149.5,31.5 C 169.213,32.0313 176.38,41.698 171,60.5C 163.045,70.0905 153.545,71.9238 142.5,66C 132.284,56.2932 131.951,46.2932 141.5,36C 144.099,34.205 146.766,32.705 149.5,31.5 Z"/></g>
<g><path style="opacity:0.97" fill="#e2b5c7" d="M 188.5,56.5 C 196.964,55.1385 201.964,58.6385 203.5,67C 195.632,76.3803 187.298,85.3803 178.5,94C 168.246,95.2788 157.913,96.2788 147.5,97C 141.671,109.816 135.837,122.649 130,135.5C 129.333,136.833 129.333,138.167 130,139.5C 136.969,145.468 143.636,151.801 150,158.5C 150.781,159.729 151.281,161.062 151.5,162.5C 150.127,174.2 147.293,185.534 143,196.5C 141.042,201.59 138.208,206.09 134.5,210C 128.981,213.122 123.981,212.289 119.5,207.5C 118.063,205.979 117.396,204.145 117.5,202C 121.297,190.274 125.297,178.608 129.5,167C 121.333,160.833 113.167,154.667 105,148.5C 101.409,156.02 98.0755,163.686 95,171.5C 82.0362,184.893 66.5362,193.393 48.5,197C 40.722,193.92 38.5553,188.42 42,180.5C 49.6027,176.282 57.436,172.449 65.5,169C 69.6328,165.869 73.4662,162.369 77,158.5C 86.7805,133.821 96.9472,109.321 107.5,85C 102.761,84.2738 98.0947,84.6071 93.5,86C 86.6859,92.8894 79.3526,99.0561 71.5,104.5C 62.9062,101.658 60.7395,96.3242 65,88.5C 71.5957,82.4489 78.0957,76.2822 84.5,70C 86.2746,68.5611 88.2746,67.5611 90.5,67C 100.634,65.8524 110.801,65.0191 121,64.5C 125.253,64.6551 129.42,65.3218 133.5,66.5C 134.708,72.5406 138.375,76.0406 144.5,77C 153.593,77.7076 162.593,77.0409 171.5,75C 177.685,69.3152 183.351,63.1485 188.5,56.5 Z"/></g>
</svg>
